#!OML:ASF I:\Actors\actors\Patient Classification 1\Patient 1\Session 1\Subject1.ASF
:FULLY-SPECIFIED
:DEGREES
374
root -0.437249 17.7456 8.07282 9.74461 1.25651 -7.37394
lowerback 5.64266 0.284381 4.38026
upperback -5.9574 1.01141 2.15993
thorax -9.46826 0.280496 -0.296031
lowerneck 1.90714 -3.92021 -1.1091
upperneck 14.8821 -6.28917 7.89158
head 4.4175 -2.77965 2.39923
rclavicle 2.29808e-014 -2.46493e-014
rhumerus 22.9363 -4.77329 20.4192
rradius 115.589
rwrist -61.7828
rhand 26.133 -40.2372
rfingers 7.12502
rthumb 50.1993 -781.355
lclavicle 2.29808e-014 -2.46493e-014
lhumerus 33.1843 11.7045 -11.0257
lradius 114.523
lwrist 96.9261
lhand -25.8325 1.54312
lfingers 7.12502
lthumb 0.707522 31.5217
rfemur -6.26469 20.9273 23.0273
rtibia 4.99187
rfoot -12.3507 -25.0341
rtoes 2.46112
lfemur 2.34878 -44.3455 -12.2439
ltibia -3.8466
lfoot -18.5564 51.8359
ltoes 10.2314
375
root -0.441668 17.7578 8.11452 9.66536 1.27048 -7.36324
lowerback 5.79396 0.355564 4.32887
upperback -6.24779 1.11573 2.0451
thorax -9.8745 0.320263 -0.402763
lowerneck 2.44743 -4.23548 -1.07582
upperneck 12.2524 -6.52362 8.03403
head 3.9531 -2.99539 2.71413
rclavicle 1.4707e-015 -2.08724e-014
rhumerus 21.8452 -7.59614 21.9124
rradius 115.416
rwrist -61.6825
rhand 25.8555 -40.828
rfingers 7.12502
rthumb 49.9454 -782.079
lclavicle 1.4707e-015 -2.08724e-014
lhumerus 32.9925 15.0774 -12.4817
lradius 113.969
lwrist 96.7389
lhand -25.6219 1.01204
lfingers 7.12502
lthumb 0.910903 30.9898
rfemur -5.82097 21.2025 23.1688
rtibia 4.68471
rfoot -12.3702 -25.3096
rtoes 2.38159
lfemur 2.75013 -44.4212 -12.5207
ltibia -3.90554
lfoot -18.5586 51.9181
ltoes 9.90407
376
root -0.443762 17.7688 8.15492 9.59031 1.23242 -7.29156
lowerback 6.30177 0.457836 4.39925
upperback -6.8117 1.29745 1.7978
thorax -10.7978 0.369123 -0.734529
lowerneck 1.90589 -4.19583 -1.9623
upperneck 12.0286 -6.63387 9.71966
head 3.64833 -2.99777 3.09778
rclavicle -1.38528e-014 2.46493e-014
rhumerus 21.0277 -9.97086 22.5675
rradius 115.139
rwrist -60.6873
rhand 25.9515 -40.9045
rfingers 7.12502
rthumb 50.0333 -782.11
lclavicle -1.38528e-014 2.46493e-014
lhumerus 33.0946 18.0455 -13.4341
lradius 113.565
lwrist 96.5551
lhand -25.4851 0.824458
lfingers 7.12502
lthumb 1.0431 30.8017
rfemur -5.40391 21.4346 23.23
rtibia 4.40886
rfoot -12.4097 -25.5124
rtoes 2.36916
lfemur 3.26098 -44.7187 -12.965
ltibia -4.00081
lfoot -18.7962 52.2283
ltoes 9.93926
377
root -0.443487 17.7772 8.19226 9.51632 1.1533 -7.18433
lowerback 6.22166 0.460809 4.10257
upperback -6.91663 1.2704 1.82973
thorax -10.8728 0.378682 -0.528955
lowerneck 1.70744 -3.65652 -2.47036
upperneck 10.4516 -5.86802 10.8525
head 3.20185 -2.64365 3.55422
rclavicle -1.4561e-014 1.98785e-016
rhumerus 20.6499 -13.4567 22.6973
rradius 114.818
rwrist -59.3325
rhand 26.3533 -40.4762
rfingers 7.12502
rthumb 50.4006 -781.486
lclavicle -1.4561e-014 1.98785e-016
lhumerus 32.7343 21.228 -13.9469
lradius 112.944
lwrist 95.7897
lhand -24.8089 0.735144
lfingers 7.12502
lthumb 1.69612 30.7081
rfemur -5.01614 21.6304 23.2339
rtibia 4.14569
rfoot -12.4095 -25.665
rtoes 2.32998
lfemur 3.78121 -45.0978 -13.4946
ltibia -4.0484
lfoot -19.3578 52.5876
ltoes 10.4009
378
root -0.442165 17.7815 8.22688 9.39809 1.0676 -7.11183
lowerback 6.62309 0.531108 4.04641
upperback -7.28936 1.38963 1.72954
thorax -11.5341 0.420473 -0.626782
lowerneck 2.15592 -3.5944 -1.87251
upperneck 8.17392 -5.53501 10.4527
head 2.66943 -2.57557 3.70474
rclavicle -9.29318e-015 -1.51076e-014
rhumerus 20.2164 -16.8326 22.6227
rradius 114.661
rwrist -58.572
rhand 26.521 -40.4221
rfingers 7.12502
rthumb 50.5538 -781.349
lclavicle -9.29318e-015 -1.51076e-014
lhumerus 32.9442 23.8863 -13.8299
lradius 112.34
lwrist 94.935
lhand -23.7336 0.408126
lfingers 7.12502
lthumb 2.73466 30.3703
rfemur -4.59394 21.7893 23.283
rtibia 3.8853
rfoot -12.4036 -25.7702
rtoes 2.31943
lfemur 4.24802 -45.2999 -13.9905
ltibia -3.96253
lfoot -19.9223 52.7627
ltoes 10.8289
379
root -0.4414 17.7815 8.26046 9.25356 1.0036 -7.06033
lowerback 7.23291 0.644736 4.15941
upperback -7.77971 1.59264 1.50738
thorax -12.4571 0.47326 -0.972205
lowerneck 2.72938 -3.71641 -1.10348
upperneck 5.78178 -5.45433 10.2738
head 1.72789 -2.60978 3.49522
rclavicle 1.48095e-014 -7.95139e-016
rhumerus 19.8602 -19.8675 22.3052
rradius 114.449
rwrist -58.149
rhand 26.4044 -40.8013
rfingers 7.12502
rthumb 50.4473 -781.786
lclavicle 1.48095e-014 -7.95139e-016
lhumerus 33.525 26.4083 -13.2171
lradius 111.983
lwrist 94.2617
lhand -22.7585 0.265405
lfingers 7.12502
lthumb 3.67636 30.2134
rfemur -4.13539 21.9515 23.3659
rtibia 3.61694
rfoot -12.4538 -25.8895
rtoes 2.47411
lfemur 4.75282 -45.5409 -14.4868
ltibia -3.87458
lfoot -20.5922 52.9477
ltoes 11.3573
380
root -0.441627 17.78 8.29312 9.12931 0.98832 -7.02485
lowerback 7.99791 0.770467 4.39238
upperback -8.41156 1.83759 1.21864
thorax -13.6503 0.516808 -1.47821
lowerneck 2.78241 -3.82072 -1.35263
upperneck 4.14843 -5.48728 11.2205
head 1.23226 -2.67708 3.87908
rclavicle -2.85753e-014 1.82882e-014
rhumerus 19.3712 -22.4697 22.0305
rradius 114.362
rwrist -57.9126
rhand 25.891 -41.2149
rfingers 7.12502
rthumb 49.9779 -782.449
lclavicle -2.85753e-014 1.82882e-014
lhumerus 34.3107 28.8198 -12.2518
lradius 111.851
lwrist 93.8425
lhand -22.0801 0.622047
lfingers 7.12502
lthumb 4.33147 30.5577
rfemur -3.66243 22.1785 23.4694
rtibia 3.29401
rfoot -12.5603 -26.1089
rtoes 2.95493
lfemur 5.27358 -45.8603 -14.9317
ltibia -3.8952
lfoot -21.1758 53.2025
ltoes 11.7542
381
root -0.442403 17.7792 8.32607 9.04725 1.02848 -7.00694
lowerback 8.41525 0.833101 4.44172
upperback -8.82958 1.96324 1.11943
thorax -14.4026 0.541172 -1.65102
lowerneck 2.89563 -3.76241 -1.39453
upperneck 2.16641 -5.22637 11.7273
head 0.570632 -2.61756 4.08421
rclavicle -6.85807e-015 1.43125e-014
rhumerus 19.0053 -25.2324 21.7691
rradius 114.388
rwrist -57.5047
rhand 24.8966 -41.7517
rfingers 7.12502
rthumb 49.0663 -783.451
lclavicle -6.85807e-015 1.43125e-014
lhumerus 34.6944 31.3022 -11.1758
lradius 111.762
lwrist 93.4787
lhand -21.8161 0.920462
lfingers 7.12502
lthumb 4.58638 30.8508
rfemur -3.17871 22.5647 23.5992
rtibia 2.9085
rfoot -12.7243 -26.4965
rtoes 3.67344
lfemur 5.72676 -46.1649 -15.2816
ltibia -3.97041
lfoot -21.5342 53.4427
ltoes 11.8012
382
root -0.443147 17.7783 8.36103 9.02474 1.12518 -7.02922
lowerback 8.44845 0.824745 4.37384
upperback -9.02459 1.9595 1.17356
thorax -14.6632 0.542021 -1.55362
lowerneck 2.68194 -3.66509 -1.56133
upperneck 0.136652 -4.90471 12.1702
head -0.0519484 -2.52363 4.29493
rclavicle -1.23246e-014 -2.70347e-014
rhumerus 18.737 -28.088 21.3629
rradius 114.534
rwrist -56.6955
rhand 23.7032 -42.4015
rfingers 7.12502
rthumb 47.968 -784.629
lclavicle -1.23246e-014 -2.70347e-014
lhumerus 34.5441 33.9307 -10.2634
lradius 111.844
lwrist 93.4696
lhand -21.8859 1.11403
lfingers 7.12502
lthumb 4.51896 31.0458
rfemur -2.72988 23.0288 23.7736
rtibia 2.50072
rfoot -12.8872 -27.0027
rtoes 4.11239
lfemur 6.06359 -46.47 -15.4972
ltibia -4.03577
lfoot -21.9109 53.6231
ltoes 11.9645
